<?xml version="1.0" standalone="no"?>
<!DOCTYPE svg PUBLIC "-//W3C//DTD SVG 20010904//EN"
 "http://www.w3.org/TR/2001/REC-SVG-20010904/DTD/svg10.dtd">
<svg version="1.0" xmlns="http://www.w3.org/2000/svg"
 width="16.000000pt" height="16.000000pt" viewBox="0 0 16.000000 16.000000"
 preserveAspectRatio="xMidYMid meet">

<g transform="translate(0.000000,16.000000) scale(0.100000,-0.100000)"
fill="#000000" stroke="none">
<path d="M126 133 c-4 -4 -22 -6 -40 -5 -24 2 -42 -4 -62 -21 -28 -25 -28 -26
-10 -45 10 -12 15 -26 11 -34 -4 -7 20 14 54 47 33 33 61 61 61 62 0 5 -7 3
-14 -4z m-46 -22 c-17 -5 -27 -16 -30 -34 -5 -26 -6 -27 -25 -13 -20 16 -20
16 5 36 14 11 36 19 50 19 l25 -1 -25 -7z m0 -26 c-7 -9 -15 -13 -17 -11 -7 7
7 26 19 26 6 0 6 -6 -2 -15z"/>
<path d="M140 97 c12 -17 11 -21 -10 -37 -14 -11 -36 -21 -50 -23 -25 -4 -25
-4 2 -6 16 0 38 9 55 23 28 24 28 25 9 43 -19 17 -19 17 -6 0z"/>
<path d="M90 65 c-8 -9 -8 -15 -2 -15 12 0 26 19 19 26 -2 2 -10 -2 -17 -11z"/>
</g>
</svg>
